<svg xmlns="http://www.w3.org/2000/svg" viewBox="0 0 90 90"><path d="M45 0C20.15 0 0 20.15 0 45s20.15 45 45 45 45-20.15 45-45S69.85 0 45 0z" fill="#2081E2"/><path d="M22.15 46.75l.14-.22 13.9-21.72a.46.46 0 0 1 .81.05c2.32 5.21 4.33 11.68 3.39 15.7-.4 1.67-1.5 3.93-2.74 6.01a15 15 0 0 1-.52.88.45.45 0 0 1-.38.2H22.58a.46.46 0 0 1-.43-.9zM67.3 49.9v1.24c0 .25-.15.48-.38.58-1.07.45-4.74 2.15-6.27 4.28-3.9 5.43-6.88 13.22-13.54 13.22H27.7A16.7 16.7 0 0 1 11 52.56v-.29c0-.25.2-.46.46-.46h15.15c.29 0 .5.27.48.55-.1 1.02.08 2.06.54 3 .9 1.88 2.8 3.06 4.85 3.06h7.62v-6.02h-7.52a.47.47 0 0 1-.38-.73l.32-.46c.83-1.19 2.03-3 3.24-5.06 .81-1.35 1.6-2.79 2.23-4.24.12-.26.22-.53.33-.79.18-.48.36-.93.5-1.37.13-.37.24-.72.32-1.06a18.5 18.5 0 0 0 .35-3.27c0-.44-.02-.9-.06-1.34-.03-.48-.1-.96-.17-1.44a14.2 14.2 0 0 0-.29-1.48l-.04-.18c-.1-.38-.19-.73-.3-1.08-.3-1-.66-1.98-1.04-2.9a17 17 0 0 0-.52-1.2c-.22-.49-.44-.96-.67-1.4-.1-.2-.2-.38-.3-.57-.11-.22-.23-.43-.35-.64l-.98-1.68a.46.46 0 0 1 .53-.67l6.1 1.65h.02l.01.01 .8.22.88.25.32.09V19.1a4.13 4.13 0 0 1 4.14-4.13c1.14 0 2.17.46 2.92 1.21a4.1 4.1 0 0 1 1.21 2.92v4.55l.65.18c.05.02.1.04.14.08.15.11.37.28.65.5.22.18.47.4.75.65.57.5 1.24 1.12 1.93 1.83.19.19.38.38.56.59.93 1 1.96 2.19 2.92 3.47.26.36.52.73.76 1.1.25.38.51.76.73 1.14.3.48.57.97.82 1.46.12.24.24.5.35.75a11.2 11.2 0 0 1 .62 1.86 5.8 5.8 0 0 1 .16.7l.04.27c.06.4.08.82.06 1.24a6.7 6.7 0 0 1-.12 1.07 9.8 9.8 0 0 1-.28 1.1c-.14.44-.3.88-.5 1.3a11 11 0 0 1-.55 1.11c-.2.38-.42.74-.64 1.1-.14.22-.27.44-.41.65-.17.24-.34.47-.52.7-.1.13-.2.27-.31.4-.13.16-.26.32-.4.47l-.54.6-.37.4a.46.46 0 0 1-.34.14h-4.94v6.02h6.22c1.38 0 2.7-.5 3.73-1.4a35.8 35.8 0 0 0 2.72-2.95.45.45 0 0 1 .24-.15l15.97-4.62a.46.46 0 0 1 .58.44z" fill="#fff"/></svg>
